<svg width="20" height="28" viewBox="0 0 20 28" fill="none" xmlns="http://www.w3.org/2000/svg">
<path d="M18.902 13.6403H15.9044V8.44287H16.7357C18.0707 8.44287 19.1392 7.40881 19.1392 6.11682V2.32605C19.1392 1.03409 18.0707 0 16.7357 0H3.26405C1.92912 0 0.860631 1.03406 0.860631 2.32605V6.08839C0.860631 7.38035 1.92908 8.41444 3.26405 8.41444H4.09536V13.6119H1.0978C0.474299 13.6119 0 14.0709 0 14.646V17.9196C0 18.523 0.474299 18.9821 1.0978 18.9821H2.64058L1.66137 27.6841C1.66137 27.7705 1.69069 27.8569 1.75062 27.9136C1.81054 27.9716 1.89852 28 1.95845 28H3.47189C3.61979 28 3.73837 27.9136 3.76897 27.7705L5.93522 18.9835H5.99514L5.40226 24.8993C5.40226 24.9857 5.43158 25.072 5.49151 25.1288C5.55144 25.1868 5.63941 25.2152 5.69934 25.2152H6.61863C6.76653 25.2152 6.88511 25.1288 6.91571 24.9857L8.22132 18.9836H11.8411L13.1468 24.9857C13.1761 25.1288 13.2947 25.2152 13.4438 25.2152H14.3631C14.4524 25.2152 14.5416 25.1868 14.571 25.1288C14.6003 25.0708 14.6602 24.9857 14.6602 24.8993L14.0673 18.9835H14.1273L16.2935 27.7705C16.3228 27.9136 16.4414 28 16.5906 28H18.104C18.1933 28 18.2825 27.9716 18.3119 27.9136C18.3718 27.8556 18.4011 27.7705 18.4011 27.6841L17.4219 18.9821H18.9022C19.5257 18.9821 20 18.523 20 17.9196V14.6744C20 14.1006 19.5255 13.6403 18.902 13.6403ZM15.3115 13.6403H14.3616V8.44287H15.3115V13.6403ZM6.23096 13.6403V8.44287H13.7383V13.6403H6.23096ZM1.45338 6.11692V2.32614C1.45338 1.35008 2.25408 0.573891 3.26391 0.573891H16.7066C17.7151 0.573891 18.5171 1.34882 18.5171 2.32614V6.08849C18.5171 7.06455 17.7164 7.84074 16.7066 7.84074L3.26391 7.8395C2.2847 7.86912 1.45338 7.06461 1.45338 6.11692ZM4.68812 8.44297H5.63802V13.6404H4.68812V8.44297ZM3.20526 27.455H2.25536L3.20526 19.012H5.28227L3.20526 27.455ZM6.32014 24.6686H5.96442L6.52799 19.0109H7.53652L6.32014 24.6686ZM14.006 24.6686H13.6503L12.4046 19.0109H13.4131L14.006 24.6686ZM17.7443 27.455H16.7944L14.7174 19.012H16.7944L17.7443 27.455ZM19.4056 17.9483C19.4056 18.2358 19.1978 18.437 18.9007 18.437H1.09763C0.800553 18.437 0.592718 18.2359 0.592718 17.9483L0.593993 14.6747C0.593993 14.4168 0.831145 14.2156 1.09891 14.2156H18.9033C19.2004 14.2156 19.4082 14.4168 19.4082 14.6747L19.4056 17.9483Z" fill="#160C04"/>
</svg>
