<svg width="21" height="16" viewBox="0 0 21 16" fill="none" xmlns="http://www.w3.org/2000/svg">
<path d="M20.4329 1.7684C20.4084 1.26146 20.1672 0.803545 19.8054 0.466233C19.4436 0.128921 18.9611 -0.0407001 18.4542 0.00831436C17.9473 0.0328119 17.4893 0.274035 17.1756 0.635854L7.52706 11.4904L3.11455 7.48509C2.75273 7.14778 2.27031 6.97816 1.76337 7.00267C1.25644 7.02716 0.798522 7.24388 0.484753 7.6057C0.147441 7.96752 -0.0221801 8.44994 0.00232708 8.95687C0.0268247 9.46381 0.24354 9.92173 0.605359 10.2355L6.41907 15.5176C6.75638 15.8313 7.21527 16 7.67318 16H7.79379C8.27622 15.9755 8.73413 15.7588 9.09595 15.3725L19.9985 3.09521C20.2887 2.73339 20.4574 2.25082 20.4329 1.7684Z" fill="#EB7100"/>
</svg>
