<svg width="28" height="24" viewBox="0 0 28 24" fill="none" xmlns="http://www.w3.org/2000/svg">
<path d="M23.6734 1.57391C26.2924 2.06327 27.9195 2.80398 27.9593 3.70336C28.0122 4.40426 28.1049 5.14528 27.5492 5.67415C26.9143 6.28265 25.5519 6.79844 23.6734 7.18202C21.6232 7.59204 18.938 7.88292 15.9351 7.96256C15.0357 10.1583 14.6521 16.1764 15.4722 18.4779C16.7288 18.5706 20.8426 19.0599 20.8426 20.8192C20.8426 23.9936 7.13876 23.9936 7.13876 20.8192C7.13876 20.1842 7.73392 19.6286 8.73943 19.232C9.63886 18.8748 10.8824 18.6104 12.2976 18.4913C13.1177 16.2032 12.7475 10.1449 11.8347 7.96256C8.92454 7.86985 6.31867 7.59236 4.30796 7.18202C2.40333 6.79844 1.00115 6.30909 0.392617 5.66108C-0.136583 5.10546 0.0223946 4.44408 0.0223946 3.74318C0.00932792 2.40734 3.39547 1.74595 4.32165 1.57391C9.92974 0.542012 18.0516 0.542012 23.6734 1.57391ZM15.1281 7.989C14.2946 8.00238 13.4746 8.00238 12.6545 7.989C13.4879 10.4361 14.0566 17.1554 12.7207 19.3776C12.2444 20.1845 11.4641 20.4754 10.5778 20.6605C10.0884 20.7532 9.94281 20.0256 10.4322 19.9198C10.9216 19.814 11.4772 19.6684 11.8344 19.2982C11.1599 19.3776 7.90565 19.8934 7.90565 20.8192C7.90565 22.9356 20.0885 22.9356 20.0885 20.8192C20.0885 19.8535 16.6096 19.3377 15.9084 19.2715C16.3184 19.7079 16.9798 19.8535 17.5486 19.9593C18.0379 20.052 17.9057 20.7927 17.4163 20.7C16.4506 20.528 15.5777 20.2636 15.0485 19.3773C13.7259 17.142 14.295 10.4361 15.1281 7.989ZM27.1918 4.88054L27.2052 4.73495C26.4644 5.19786 25.2473 5.58144 23.6734 5.87231C18.0516 6.91728 9.92975 6.91728 4.32134 5.87231C2.73404 5.58144 1.51698 5.19786 0.789596 4.73495V4.86717C0.802974 5.42278 2.20484 5.99146 4.46694 6.4413C9.91668 7.55222 18.0784 7.55222 23.5281 6.4413C24.1363 6.32247 27.1787 5.75347 27.1918 4.88054ZM4.45356 5.13191C9.96957 6.15043 18.0252 6.15043 23.5278 5.13191C28.3824 4.23253 28.3824 3.21401 23.5278 2.31463C18.0252 1.29611 9.96926 1.29611 4.45356 2.31463C-0.427473 3.22707 -0.427473 4.23253 4.45356 5.13191Z" fill="#160C04"/>
</svg>
