<svg xmlns="http://www.w3.org/2000/svg" viewBox="0.0310059 0 9.083 16">
	<path d="M8.03087 8.66175H2.37698V1.08308C2.37698 0.485706 1.89128 0 1.29438 0C0.697249 0 0.211544 0.485706 0.211544 1.08308V10.4666C0.211544 10.666 0.372958 10.8274 0.572409 10.8274H1.48433L0.0469598 15.5333C-0.0115589 15.7245 0.0959693 15.9259 0.286643 15.9844C0.321998 15.9951 0.357109 16 0.391977 16C0.546807 16 0.689935 15.8995 0.736993 15.7445L1.69719 12.6015H6.78856L7.74876 15.7445C7.79582 15.8995 7.93894 16 8.09377 16C8.12864 16 8.16375 15.9951 8.19911 15.9844C8.38978 15.9259 8.49731 15.7245 8.43879 15.5333L7.00143 10.8274H8.03087C8.628 10.8274 9.11371 10.3417 9.11371 9.74483C9.11371 9.14746 8.628 8.66175 8.03087 8.66175ZM6.56839 11.8798H1.91737L2.23897 10.8274H6.24678L6.56839 11.8798ZM8.03087 10.1057H0.933275V1.08308C0.933275 0.884121 1.09518 0.722219 1.29438 0.722219C1.49335 0.722219 1.65525 0.884121 1.65525 1.08308V9.02262C1.65525 9.22207 1.81666 9.38348 2.01612 9.38348H8.03087C8.23007 9.38348 8.39198 9.54587 8.39198 9.74483C8.39198 9.94331 8.23007 10.1057 8.03087 10.1057Z" fill="currentColor"/>
</svg>