<svg viewBox="0 0 28 16" fill="none" xmlns="http://www.w3.org/2000/svg">
<path d="M8.03087 8.66175H2.37698V1.08308C2.37698 0.485706 1.89128 0 1.29438 0C0.697249 0 0.211544 0.485706 0.211544 1.08308V10.4666C0.211544 10.666 0.372958 10.8274 0.572409 10.8274H1.48433L0.0469598 15.5333C-0.0115589 15.7245 0.0959693 15.9259 0.286643 15.9844C0.321998 15.9951 0.357109 16 0.391977 16C0.546807 16 0.689935 15.8995 0.736993 15.7445L1.69719 12.6015H6.78856L7.74876 15.7445C7.79582 15.8995 7.93894 16 8.09377 16C8.12864 16 8.16375 15.9951 8.19911 15.9844C8.38978 15.9259 8.49731 15.7245 8.43879 15.5333L7.00143 10.8274H8.03087C8.628 10.8274 9.11371 10.3417 9.11371 9.74483C9.11371 9.14746 8.628 8.66175 8.03087 8.66175ZM6.56839 11.8798H1.91737L2.23897 10.8274H6.24678L6.56839 11.8798ZM8.03087 10.1057H0.933275V1.08308C0.933275 0.884121 1.09518 0.722219 1.29438 0.722219C1.49335 0.722219 1.65525 0.884121 1.65525 1.08308V9.02262C1.65525 9.22207 1.81666 9.38348 2.01612 9.38348H8.03087C8.23007 9.38348 8.39198 9.54587 8.39198 9.74483C8.39198 9.94331 8.23007 10.1057 8.03087 10.1057Z" fill="currentColor"/>
<path d="M27.9531 15.5333L26.5157 10.8274H27.4276C27.6271 10.8274 27.7885 10.666 27.7885 10.4666V1.08308C27.7885 0.485706 27.3028 0 26.7056 0C26.1088 0 25.623 0.485706 25.623 1.08308V8.66175H19.9692C19.372 8.66175 18.8863 9.14746 18.8863 9.74483C18.8863 10.3417 19.372 10.8274 19.9692 10.8274H20.9986L19.5612 15.5333C19.5027 15.7245 19.6102 15.9259 19.8009 15.9844C19.8363 15.9951 19.8714 16 19.9063 16C20.0611 16 20.2042 15.8995 20.2513 15.7445L21.2115 12.6015H26.3028L27.263 15.7445C27.3101 15.8995 27.4532 16 27.6081 16C27.6429 16 27.678 15.9951 27.7134 15.9844C27.9041 15.9259 28.0116 15.7245 27.9531 15.5333ZM19.6081 9.74483C19.6081 9.54587 19.77 9.38348 19.9692 9.38348H25.9839C26.1834 9.38348 26.3448 9.22207 26.3448 9.02262V1.08308C26.3448 0.884121 26.5067 0.722219 26.7056 0.722219C26.9049 0.722219 27.0668 0.884121 27.0668 1.08308V10.1057H19.9692C19.77 10.1057 19.6081 9.94331 19.6081 9.74483ZM21.4316 11.8798L21.7533 10.8274H25.7611L26.0827 11.8798H21.4316Z" fill="currentColor"/>
<path d="M17.0379 15.2783H14.3609V6.94814H19.7556C20.4605 6.94814 21.0342 6.37465 21.0342 5.6695C21.0342 4.96484 20.4605 4.39087 19.7556 4.39087H8.24445C7.53955 4.39087 6.96582 4.96484 6.96582 5.6695C6.96582 6.37465 7.53955 6.94814 8.24445 6.94814H13.6392V15.2783H10.9622C10.7627 15.2783 10.6013 15.4397 10.6013 15.6391C10.6013 15.8386 10.7627 16 10.9622 16H17.0379C17.2373 16 17.3987 15.8386 17.3987 15.6391C17.3987 15.4397 17.2373 15.2783 17.0379 15.2783ZM7.6878 5.6695C7.6878 5.36228 7.93748 5.1126 8.24445 5.1126H19.7556C20.0626 5.1126 20.3122 5.36228 20.3122 5.6695C20.3122 5.97721 20.0626 6.22641 19.7556 6.22641H8.24445C7.93748 6.22641 7.6878 5.97721 7.6878 5.6695Z" fill="currentColor"/>
</svg>
