<svg xmlns="http://www.w3.org/2000/svg" viewBox="6.96582 4.39087 14.07 11.61">
	<path d="M17.0379 15.2783H14.3609V6.94814H19.7556C20.4605 6.94814 21.0342 6.37465 21.0342 5.6695C21.0342 4.96484 20.4605 4.39087 19.7556 4.39087H8.24445C7.53955 4.39087 6.96582 4.96484 6.96582 5.6695C6.96582 6.37465 7.53955 6.94814 8.24445 6.94814H13.6392V15.2783H10.9622C10.7627 15.2783 10.6013 15.4397 10.6013 15.6391C10.6013 15.8386 10.7627 16 10.9622 16H17.0379C17.2373 16 17.3987 15.8386 17.3987 15.6391C17.3987 15.4397 17.2373 15.2783 17.0379 15.2783ZM7.6878 5.6695C7.6878 5.36228 7.93748 5.1126 8.24445 5.1126H19.7556C20.0626 5.1126 20.3122 5.36228 20.3122 5.6695C20.3122 5.97721 20.0626 6.22641 19.7556 6.22641H8.24445C7.93748 6.22641 7.6878 5.97721 7.6878 5.6695Z" fill="currentColor"/>
</svg>